<svg width="33" height="24" viewBox="0 0 33 24" fill="none" xmlns="http://www.w3.org/2000/svg">
<path opacity="0.5" d="M23.6606 18.3262C22.6046 16.708 21.0552 15.4732 19.2422 14.8049C20.4289 14.0056 21.2663 12.7841 21.5841 11.389C21.9019 9.99396 21.6761 8.53024 20.9528 7.29578C20.2294 6.06132 19.0628 5.14891 17.6904 4.74428C16.318 4.33965 14.843 4.4732 13.5656 5.11775C13.5168 5.14297 13.4741 5.17862 13.4405 5.22218C13.407 5.26574 13.3835 5.31613 13.3716 5.3698C13.3597 5.42347 13.3597 5.4791 13.3717 5.53275C13.3837 5.5864 13.4073 5.63675 13.4409 5.68025C14.3908 6.86507 14.9363 8.32291 14.9975 9.84023C15.0588 11.3576 14.6325 12.8546 13.7813 14.1121C13.7262 14.1943 13.7059 14.2949 13.7247 14.392C13.7435 14.4891 13.7999 14.5748 13.8816 14.6306C14.9915 15.4052 15.9416 16.3865 16.68 17.5209C16.9778 17.9769 17.0994 18.5258 17.0222 19.0649C17.0135 19.1186 17.0166 19.1735 17.0312 19.2258C17.0458 19.2781 17.0716 19.3266 17.1068 19.368C17.142 19.4094 17.1858 19.4426 17.2352 19.4654C17.2845 19.4882 17.3382 19.5 17.3925 19.4999H23.0456C23.2108 19.5 23.3713 19.4455 23.5024 19.345C23.6334 19.2445 23.7276 19.1035 23.7703 18.944C23.7964 18.8391 23.8001 18.7299 23.7812 18.6234C23.7623 18.517 23.7212 18.4157 23.6606 18.3262Z" fill="#211F26"/>
<path opacity="0.5" d="M15.2099 18.3415C15.2837 18.4547 15.3256 18.5856 15.3311 18.7206C15.3366 18.8556 15.3055 18.9896 15.2412 19.1084C15.1768 19.2272 15.0816 19.3264 14.9655 19.3955C14.8495 19.4647 14.7169 19.5012 14.5818 19.5012H0.749908C0.614811 19.5012 0.482226 19.4647 0.366162 19.3955C0.250097 19.3264 0.154864 19.2272 0.0905218 19.1084C0.0261802 18.9896 -0.00488012 18.8556 0.000622504 18.7206C0.00612513 18.5856 0.0479864 18.4547 0.121783 18.3415C1.17751 16.7165 2.73037 15.4763 4.54866 14.8062C3.54347 14.137 2.78032 13.1621 2.37206 12.0256C1.96381 10.8891 1.93212 9.65146 2.28168 8.49559C2.63125 7.33972 3.3435 6.32703 4.31313 5.60727C5.28276 4.88751 6.45827 4.4989 7.66585 4.4989C8.87342 4.4989 10.0489 4.88751 11.0186 5.60727C11.9882 6.32703 12.7004 7.33972 13.05 8.49559C13.3996 9.65146 13.3679 10.8891 12.9596 12.0256C12.5514 13.1621 11.7882 14.137 10.783 14.8062C12.6013 15.4763 14.1542 16.7165 15.2099 18.3415Z" fill="#211F26"/>
<path opacity="0.08" d="M32.298 18.3262C31.2419 16.708 29.6926 15.4732 27.8795 14.8049C29.0662 14.0056 29.9037 12.7841 30.2214 11.389C30.5392 9.99396 30.3135 8.53024 29.5901 7.29578C28.8667 6.06132 27.7001 5.14891 26.3277 4.74428C24.9553 4.33965 23.4803 4.4732 22.203 5.11775C22.1541 5.14297 22.1114 5.17862 22.0779 5.22218C22.0443 5.26574 22.0208 5.31613 22.0089 5.3698C21.997 5.42347 21.997 5.4791 22.009 5.53275C22.021 5.5864 22.0447 5.63675 22.0783 5.68025C23.0281 6.86507 23.5736 8.32291 23.6348 9.84023C23.6961 11.3576 23.2699 12.8546 22.4186 14.1121C22.3636 14.1943 22.3432 14.2949 22.362 14.392C22.3808 14.4891 22.4372 14.5748 22.5189 14.6306C23.6288 15.4052 24.5789 16.3865 25.3173 17.5209C25.6151 17.9769 25.7368 18.5258 25.6595 19.0649C25.6508 19.1186 25.6539 19.1735 25.6685 19.2258C25.6831 19.2781 25.7089 19.3266 25.7441 19.368C25.7794 19.4094 25.8232 19.4426 25.8725 19.4654C25.9218 19.4882 25.9755 19.5 26.0298 19.4999H31.683C31.8481 19.5 32.0087 19.4455 32.1397 19.345C32.2707 19.2445 32.3649 19.1035 32.4076 18.944C32.4337 18.8391 32.4374 18.7299 32.4185 18.6234C32.3996 18.517 32.3586 18.4157 32.298 18.3262Z" fill="#211F26"/>
</svg>
